<?xml version="1.0" encoding="utf-8"?>
<!-- Generator: Adobe Illustrator 26.1.0, SVG Export Plug-In . SVG Version: 6.00 Build 0)  -->
<svg version="1.1" xmlns="http://www.w3.org/2000/svg" xmlns:xlink="http://www.w3.org/1999/xlink" x="0px" y="0px"
	 viewBox="0 0 1190.6 841.9" style="enable-background:new 0 0 1190.6 841.9;" xml:space="preserve">
<style type="text/css">
	.st0{display:none;}
	.st1{display:inline;}
	.st2{font-family:'MyriadPro-Regular';}
	.st3{font-size:12px;}
	.st4{font-family:'Futura-Medium';}
	.st5{font-size:19px;}
	.st6{font-family:'Avenir-Book';}
	.st7{font-size:10px;}
	.st8{display:inline;fill:none;stroke:#FFFFFF;stroke-width:3.4028;stroke-miterlimit:10;}
	.st9{fill:none;stroke:#000000;stroke-width:2.6459;stroke-miterlimit:10;}
	.st10{display:inline;fill:none;stroke:#000000;stroke-width:1.5536;stroke-miterlimit:10;}
	.st11{display:inline;fill:none;}
	.st12{display:inline;fill:none;stroke:#FFFFFF;stroke-width:3.6964;stroke-miterlimit:10;}
	.st13{fill:none;stroke:#000000;stroke-width:2.8743;stroke-miterlimit:10;}
	.st14{display:inline;fill:none;stroke:#000000;stroke-width:1.6876;stroke-miterlimit:10;}
	.st15{display:inline;fill:none;stroke:#000000;stroke-width:7.403;stroke-miterlimit:10;}
	.st16{font-size:23.7168px;}
	.st17{fill:none;stroke:#000000;stroke-width:7.403;stroke-miterlimit:10;}
</style>
<g id="Calque_1" class="st0">
	<text transform="matrix(1 0 0 1 306.0662 291.0538)" class="st1 st2 st3">casqu’ad</text>
	<text transform="matrix(1 0 0 1 363.5957 284.9938)" class="st1 st4 st3">Casqu’ad</text>
	<text transform="matrix(1 0 0 1 313.5137 323.3633)" class="st1 st4 st3">Casqu’ad</text>
	<g class="st1">
		<path d="M233.1,185.9v1.6c-0.8-0.7-1.6-1-2.4-1c-0.9,0-1.7,0.3-2.3,1c-0.6,0.7-1,1.5-1,2.4c0,0.9,0.3,1.8,1,2.4s1.4,1,2.4,1
			c0.5,0,0.9-0.1,1.2-0.2c0.2-0.1,0.4-0.2,0.6-0.3s0.4-0.3,0.6-0.5v1.6c-0.8,0.4-1.6,0.7-2.5,0.7c-1.3,0-2.4-0.5-3.3-1.4
			c-0.9-0.9-1.4-2-1.4-3.3c0-1.2,0.4-2.2,1.1-3.1c0.9-1.1,2.2-1.7,3.6-1.7C231.6,185.2,232.3,185.5,233.1,185.9z"/>
		<path d="M239.8,192.3h-3.9l-1,2.2h-1.5l4.5-9.6l4.3,9.6h-1.5L239.8,192.3z M239.2,191l-1.3-3.1l-1.4,3.1H239.2z"/>
		<path d="M247.6,186.8l-1.1,0.7c-0.2-0.4-0.4-0.6-0.6-0.7c-0.2-0.1-0.4-0.2-0.8-0.2c-0.4,0-0.7,0.1-0.9,0.3
			c-0.2,0.2-0.4,0.5-0.4,0.8c0,0.4,0.3,0.8,1,1.1l0.9,0.4c0.7,0.3,1.3,0.7,1.6,1.1s0.5,1,0.5,1.6c0,0.8-0.3,1.5-0.8,2.1
			c-0.6,0.5-1.3,0.8-2.1,0.8c-0.8,0-1.4-0.2-1.9-0.7c-0.5-0.5-0.8-1.1-0.9-2l1.4-0.3c0.1,0.5,0.2,0.9,0.3,1.1
			c0.3,0.4,0.7,0.6,1.2,0.6c0.4,0,0.8-0.1,1.1-0.4s0.4-0.6,0.4-1.1c0-0.2,0-0.3-0.1-0.5s-0.1-0.3-0.2-0.4s-0.2-0.2-0.4-0.3
			s-0.4-0.2-0.6-0.3l-0.9-0.4c-1.2-0.5-1.9-1.3-1.9-2.3c0-0.7,0.3-1.2,0.8-1.7c0.5-0.5,1.2-0.7,1.9-0.7
			C246.2,185.2,247,185.8,247.6,186.8z"/>
		<path d="M258.1,194.6h-1.7l-0.7-0.7c-0.8,0.5-1.6,0.7-2.5,0.7c-1.2,0-2.3-0.4-3.2-1.2c-1-0.9-1.5-2-1.5-3.4c0-1.4,0.5-2.5,1.4-3.4
			c0.9-0.9,2-1.3,3.3-1.3c1.1,0,2.2,0.4,3.1,1.2c1.1,0.9,1.6,2.1,1.6,3.6c0,1.2-0.4,2.2-1.3,3.1L258.1,194.6z M254.3,190.9l1.3,1.3
			c0.6-0.6,0.9-1.3,0.9-2.2c0-1-0.3-1.8-1-2.4c-0.6-0.7-1.4-1-2.4-1c-1,0-1.8,0.3-2.4,1c-0.6,0.7-0.9,1.5-0.9,2.5c0,1,0.3,1.8,1,2.4
			c0.7,0.6,1.4,1,2.3,1c0.6,0,1.1-0.1,1.6-0.4l-2.1-2.1H254.3z"/>
		<path d="M260.1,185.4v5.4c0,0.8,0.1,1.3,0.4,1.7c0.4,0.5,0.9,0.8,1.6,0.8c0.7,0,1.2-0.3,1.6-0.8c0.3-0.3,0.4-0.9,0.4-1.7v-5.4h1.4
			v5.8c0,1-0.3,1.7-0.9,2.4c-0.7,0.7-1.5,1-2.5,1s-1.8-0.3-2.5-1c-0.6-0.6-0.9-1.4-0.9-2.4v-5.8H260.1z"/>
		<path d="M268.9,184.9l1.2,0.5l-1.7,3.4l-0.9-0.4L268.9,184.9z"/>
		<path d="M275.3,193.2h-5.4l-1.4,3.1h-2.1l6.2-13.4l6,13.4h-2.1L275.3,193.2z M274.5,191.4l-1.9-4.3l-2,4.3H274.5z"/>
		<path d="M279.6,196.3v-12.6h2.6c1.3,0,2.3,0.1,3,0.4c0.8,0.2,1.5,0.7,2.1,1.3c1.3,1.2,2,2.7,2,4.7c0,1.9-0.7,3.5-2,4.7
			c-0.7,0.6-1.4,1-2.1,1.3c-0.7,0.2-1.7,0.4-3,0.4H279.6z M281.5,194.5h0.9c0.9,0,1.6-0.1,2.1-0.3c0.6-0.2,1.1-0.5,1.5-0.9
			c0.9-0.9,1.4-2,1.4-3.3c0-1.4-0.5-2.5-1.4-3.4c-0.8-0.8-2.1-1.2-3.7-1.2h-0.9V194.5z"/>
	</g>
	<text transform="matrix(1 0 0 1 354.3397 268.6695)" class="st1"><tspan x="0" y="0" class="st4 st3">casqu’</tspan><tspan x="47.8" y="0" class="st4 st5">ad</tspan></text>
	<text transform="matrix(1 0 0 1 208.4438 90.5545)" class="st1 st6 st7">proteger • prevenir • geolocaliser</text>
</g>
<g id="Calque_2" class="st0">
	<path class="st1" d="M708.9,396.9h14.3v61.5h-14.3V452c-5.9,5.5-12.1,8.2-18.9,8.2c-8.5,0-15.5-3.1-21.1-9.2
		c-5.5-6.3-8.3-14.1-8.3-23.5c0-9.2,2.8-16.9,8.3-23c5.5-6.1,12.4-9.2,20.7-9.2c7.2,0,13.6,2.9,19.3,8.8V396.9z M675.2,427.5
		c0,5.9,1.6,10.7,4.7,14.4c3.2,3.7,7.3,5.6,12.2,5.6c5.3,0,9.5-1.8,12.8-5.4c3.2-3.7,4.9-8.5,4.9-14.3c0-5.8-1.6-10.5-4.9-14.3
		c-3.2-3.7-7.5-5.5-12.6-5.5c-4.9,0-9,1.9-12.2,5.6C676.8,417.3,675.2,421.9,675.2,427.5z"/>
	<path class="st8" d="M767.3,351.8h14.3v106.6h-14.3V452c-5.6,5.5-11.9,8.2-19,8.2c-8.4,0-15.4-3.1-21-9.2
		c-5.5-6.3-8.3-14.1-8.3-23.5c0-9.2,2.8-16.8,8.3-23c5.5-6.2,12.4-9.3,20.6-9.3c7.2,0,13.6,2.9,19.3,8.8V351.8z M733.6,427.5
		c0,5.9,1.6,10.7,4.7,14.4c3.2,3.7,7.3,5.6,12.2,5.6c5.3,0,9.5-1.8,12.8-5.4c3.2-3.7,4.9-8.5,4.9-14.3c0-5.8-1.6-10.5-4.9-14.3
		c-3.2-3.7-7.5-5.5-12.6-5.5c-4.9,0-9,1.9-12.2,5.6C735.2,417.3,733.6,421.9,733.6,427.5z"/>
	<path class="st1" d="M416.2,400.1v11c-5.4-4.5-10.9-6.7-16.7-6.7c-6.3,0-11.7,2.3-16,6.8c-4.4,4.5-6.5,10-6.5,16.6
		c0,6.5,2.2,11.9,6.5,16.3c4.4,4.4,9.7,6.7,16,6.7c3.3,0,6-0.5,8.3-1.6c1.3-0.5,2.6-1.2,4-2.2s2.8-2,4.3-3.3V455
		c-5.3,3-10.9,4.5-16.7,4.5c-8.8,0-16.3-3.1-22.5-9.2c-6.2-6.2-9.3-13.7-9.3-22.4c0-7.8,2.6-14.8,7.8-21
		c6.4-7.5,14.6-11.3,24.8-11.3C405.7,395.6,411,397.1,416.2,400.1z"/>
	<path class="st1" d="M463.6,443.4h-26.4l-6.9,15h-10l30.5-65.4l29.4,65.4h-10.2L463.6,443.4z M459.8,434.7l-9.1-20.9l-9.6,20.9
		H459.8z"/>
	<path class="st1" d="M518.9,406l-7.5,4.5c-1.4-2.4-2.8-4-4-4.8c-1.3-0.9-3-1.3-5.1-1.3c-2.6,0-4.7,0.7-6.4,2.2
		c-1.7,1.4-2.6,3.2-2.6,5.4c0,3,2.2,5.4,6.7,7.3l6.1,2.5c5,2,8.7,4.5,11,7.4c2.3,2.9,3.5,6.5,3.5,10.7c0,5.7-1.9,10.3-5.7,14
		c-3.8,3.7-8.5,5.6-14.2,5.6c-5.3,0-9.8-1.6-13.2-4.7c-3.4-3.2-5.6-7.6-6.4-13.4l9.4-2.1c0.4,3.6,1.2,6.1,2.2,7.5
		c1.9,2.7,4.7,4,8.4,4c2.9,0,5.3-1,7.2-2.9s2.9-4.4,2.9-7.4c0-1.2-0.2-2.3-0.5-3.3s-0.9-1.9-1.6-2.8s-1.6-1.6-2.7-2.4
		c-1.1-0.7-2.4-1.4-4-2.1l-5.9-2.5c-8.4-3.6-12.6-8.8-12.6-15.6c0-4.6,1.8-8.5,5.3-11.6c3.5-3.1,7.9-4.7,13.2-4.7
		C509.4,395.6,514.9,399.1,518.9,406z"/>
	<path class="st1" d="M590.5,459.5h-11.7l-4.8-4.9c-5.1,3.3-10.8,4.9-17.1,4.9c-8.2,0-15.4-2.8-21.7-8.3
		c-6.9-6.1-10.3-13.9-10.3-23.3c0-9.3,3.3-17,9.8-23.2c6.3-6,13.8-9,22.4-9c7.8,0,14.8,2.6,21,7.9c7.4,6.3,11.2,14.6,11.2,24.8
		c0,8-2.9,15.1-8.8,21.3L590.5,459.5z M564.9,434l8.9,8.9c3.9-4.1,5.9-9.2,5.9-15.2c0-6.6-2.2-12.2-6.6-16.6
		c-4.4-4.5-9.8-6.7-16.3-6.7c-6.6,0-12,2.2-16.3,6.7c-4.3,4.4-6.4,10.1-6.4,16.9c0,6.6,2.2,12.1,6.6,16.3c4.6,4.4,9.8,6.5,15.8,6.5
		c4,0,7.6-0.9,10.9-2.8l-14.5-14H564.9z"/>
	<path class="st1" d="M606.3,396.8v37.1c0,5.3,0.9,9.2,2.6,11.6c2.6,3.5,6.2,5.3,10.9,5.3c4.7,0,8.3-1.8,10.9-5.3
		c1.7-2.4,2.6-6.2,2.6-11.6v-37.1h9.3v39.6c0,6.5-2,11.8-6.1,16c-4.5,4.7-10.1,7-16.7,7s-12.2-2.3-16.7-7c-4-4.2-6.1-9.5-6.1-16
		v-39.6H606.3z"/>
	<path class="st1" d="M767.3,351.8h14.3v106.6h-14.3V452c-5.6,5.5-11.9,8.2-19,8.2c-8.4,0-15.4-3.1-21-9.2
		c-5.5-6.3-8.3-14.1-8.3-23.5c0-9.2,2.8-16.8,8.3-23c5.5-6.2,12.4-9.3,20.6-9.3c7.2,0,13.6,2.9,19.3,8.8V351.8z M733.6,427.5
		c0,5.9,1.6,10.7,4.7,14.4c3.2,3.7,7.3,5.6,12.2,5.6c5.3,0,9.5-1.8,12.8-5.4c3.2-3.7,4.9-8.5,4.9-14.3c0-5.8-1.6-10.5-4.9-14.3
		c-3.2-3.7-7.5-5.5-12.6-5.5c-4.9,0-9,1.9-12.2,5.6C735.2,417.3,733.6,421.9,733.6,427.5z"/>
	<g class="st1">
		<path class="st9" d="M343.7,345.1c29,0,47,23.4,47,38.9l-21.9,3.9c-3.2,0.6-6,2.5-7.6,5.3c-1.1,1.8-3,3.1-5.3,3.1
			c-1.5,0-2.8-0.5-3.9-1.4l-8.1-6.6c-1.8-1.4-4-2.3-6.4-2.3c-4.6,0-8.5,3-9.8,7.2l-2.8,8.9c-0.8,2.5-3.1,4.3-5.9,4.3
			c-0.2,0-0.3,0-0.5,0l-13.8-1.4c-3.7-0.4-6.6-3.2-7-6.9c-0.9-7.2-1.2-12.8-1.2-20.3C296.6,357.3,322.1,345.1,343.7,345.1"/>
		<path class="st9" d="M304.8,377.9c0-10.8,11.5-19.2,25-22.7"/>
		<path class="st9" d="M343.7,353.3c-3.3,0-6.5,0.3-9.8,0.9"/>
		<path class="st9" d="M314.7,406.1L314.7,406.1l23.9,19.1c1.4,1.1,3.2,1.8,5.1,1.8c4.2,0,7.7-3.2,8.1-7.3l2.4-23.6"/>
		<line class="st9" x1="358" y1="439.2" x2="343.9" y2="418.1"/>
		<circle class="st9" cx="341.6" cy="414.7" r="4.1"/>
	</g>
	<path class="st10" d="M789.2,513.6c-11.1,4.1-23.2,6.4-35.8,6.4c-56.7,0-102.6-46-102.6-102.6c0-42.3,25.6-78.7,62.2-94.4"/>
	<path id="SVGID_x5F_1_x5F_" class="st11" d="M849.9,417.4c0,53.3-43.2,96.6-96.6,96.6c-53.3,0-96.6-43.2-96.6-96.6
		s43.2-96.6,96.6-96.6C806.7,320.8,849.9,364,849.9,417.4z"/>
	<text class="st1">	<textPath  xlink:href="#SVGID_x5F_1_x5F_" startOffset="93.3703%">
<tspan  class="st6" style="font-size:15.5584px;">proteger • prevenir • geolocaliser</tspan>	</textPath>
</text>
	<circle class="st1" cx="660.4" cy="375.3" r="10.5"/>
</g>
<g id="Calque_3" class="st0">
	<path class="st1" d="M738.8,404.6h15.5v66.8h-15.5v-7c-6.4,5.9-13.2,8.9-20.5,8.9c-9.2,0-16.9-3.3-22.9-10c-6-6.8-9-15.3-9-25.5
		c0-10,3-18.4,9-25c6-6.7,13.5-10,22.5-10c7.8,0,14.7,3.2,20.9,9.6V404.6z M702.2,437.8c0,6.4,1.7,11.6,5.1,15.6
		c3.5,4.1,8,6.1,13.3,6.1c5.7,0,10.3-2,13.9-5.9c3.5-4.1,5.3-9.2,5.3-15.5c0-6.3-1.8-11.4-5.3-15.5c-3.5-4-8.1-6-13.7-6
		c-5.3,0-9.7,2-13.3,6C703.9,426.8,702.2,431.8,702.2,437.8z"/>
	<path class="st12" d="M802.2,355.6h15.5v115.8h-15.5v-7c-6.1,5.9-13,8.9-20.6,8.9c-9.1,0-16.7-3.3-22.8-10c-6-6.8-9-15.3-9-25.5
		c0-10,3-18.3,9-25c5.9-6.7,13.4-10.1,22.4-10.1c7.8,0,14.8,3.2,21,9.6V355.6z M765.6,437.8c0,6.4,1.7,11.6,5.1,15.6
		c3.5,4.1,8,6.1,13.3,6.1c5.7,0,10.3-2,13.9-5.9c3.5-4.1,5.3-9.2,5.3-15.5c0-6.3-1.8-11.4-5.3-15.5c-3.5-4-8.1-6-13.7-6
		c-5.3,0-9.7,2-13.3,6C767.3,426.8,765.6,431.8,765.6,437.8z"/>
	<path class="st1" d="M417.1,408.1v12c-5.8-4.9-11.9-7.3-18.1-7.3c-6.9,0-12.7,2.5-17.4,7.4c-4.7,4.9-7.1,10.9-7.1,18
		c0,7,2.4,12.9,7.1,17.8c4.7,4.8,10.5,7.2,17.4,7.2c3.6,0,6.6-0.6,9.1-1.7c1.4-0.6,2.8-1.4,4.3-2.3s3.1-2.2,4.7-3.6v12.2
		c-5.8,3.3-11.8,4.9-18.2,4.9c-9.6,0-17.7-3.3-24.5-10c-6.7-6.7-10.1-14.8-10.1-24.3c0-8.5,2.8-16.1,8.4-22.8
		c6.9-8.2,15.9-12.3,26.9-12.3C405.7,403.2,411.5,404.9,417.1,408.1z"/>
	<path class="st1" d="M468.6,455.2H440l-7.5,16.2h-10.9l33.1-71.1l31.9,71.1h-11L468.6,455.2z M464.5,445.7l-9.9-22.7l-10.4,22.7
		H464.5z"/>
	<path class="st1" d="M528.6,414.5l-8.2,4.9c-1.5-2.7-3-4.4-4.4-5.2c-1.4-0.9-3.3-1.4-5.6-1.4c-2.8,0-5.1,0.8-7,2.4
		c-1.8,1.6-2.8,3.5-2.8,5.9c0,3.3,2.4,5.9,7.3,7.9l6.7,2.7c5.4,2.2,9.4,4.9,11.9,8c2.5,3.2,3.8,7,3.8,11.6c0,6.2-2.1,11.2-6.2,15.2
		c-4.1,4-9.3,6.1-15.4,6.1c-5.8,0-10.6-1.7-14.4-5.2c-3.7-3.4-6.1-8.3-7-14.5l10.2-2.3c0.5,3.9,1.3,6.6,2.4,8.1
		c2.1,2.9,5.1,4.3,9.1,4.3c3.1,0,5.8-1.1,7.8-3.2c2.1-2.1,3.1-4.8,3.1-8c0-1.3-0.2-2.5-0.5-3.6c-0.4-1.1-0.9-2.1-1.7-3
		c-0.8-0.9-1.8-1.8-3-2.6s-2.7-1.6-4.3-2.3l-6.5-2.7c-9.2-3.9-13.7-9.5-13.7-17c0-5,1.9-9.2,5.8-12.6c3.8-3.4,8.6-5.1,14.3-5.1
		C518.3,403.2,524.3,407,528.6,414.5z"/>
	<path class="st1" d="M606.4,472.6h-12.7l-5.2-5.4c-5.6,3.6-11.8,5.4-18.6,5.4c-8.9,0-16.7-3-23.6-9c-7.5-6.6-11.2-15.1-11.2-25.3
		c0-10.1,3.5-18.5,10.6-25.2c6.9-6.5,15-9.8,24.3-9.8c8.5,0,16.1,2.9,22.8,8.6c8.1,6.9,12.1,15.8,12.1,26.9c0,8.7-3.2,16.4-9.6,23.1
		L606.4,472.6z M578.6,445l9.7,9.7c4.3-4.4,6.4-9.9,6.4-16.5c0-7.2-2.4-13.2-7.1-18.1s-10.7-7.3-17.8-7.3c-7.2,0-13.1,2.4-17.7,7.3
		c-4.6,4.8-7,10.9-7,18.3c0,7.2,2.4,13.1,7.2,17.7c5,4.7,10.7,7.1,17.1,7.1c4.4,0,8.3-1,11.8-3L565.6,445H578.6z"/>
	<path class="st1" d="M623.5,404.5v40.3c0,5.7,0.9,9.9,2.8,12.6c2.8,3.8,6.7,5.8,11.8,5.8c5.1,0,9.1-1.9,11.9-5.8
		c1.9-2.6,2.8-6.8,2.8-12.6v-40.3H663v43.1c0,7-2.2,12.9-6.6,17.4c-4.9,5.1-11,7.6-18.2,7.6s-13.2-2.5-18.2-7.6
		c-4.4-4.6-6.6-10.4-6.6-17.4v-43.1H623.5z"/>
	<path class="st1" d="M802.2,355.6h15.5v115.8h-15.5v-7c-6.1,5.9-13,8.9-20.6,8.9c-9.1,0-16.7-3.3-22.8-10c-6-6.8-9-15.3-9-25.5
		c0-10,3-18.3,9-25c5.9-6.7,13.4-10.1,22.4-10.1c7.8,0,14.8,3.2,21,9.6V355.6z M765.6,437.8c0,6.4,1.7,11.6,5.1,15.6
		c3.5,4.1,8,6.1,13.3,6.1c5.7,0,10.3-2,13.9-5.9c3.5-4.1,5.3-9.2,5.3-15.5c0-6.3-1.8-11.4-5.3-15.5c-3.5-4-8.1-6-13.7-6
		c-5.3,0-9.7,2-13.3,6C767.3,426.8,765.6,431.8,765.6,437.8z"/>
	<g class="st1">
		<path class="st13" d="M338.3,348.4c31.5,0,51.1,25.4,51.1,42.2l-23.8,4.2c-3.5,0.6-6.5,2.7-8.2,5.8c-1.1,2-3.3,3.4-5.8,3.4
			c-1.6,0-3-0.6-4.2-1.5l-8.8-7.1c-1.9-1.6-4.4-2.5-7-2.5c-5,0-9.2,3.3-10.6,7.8l-3,9.7c-0.8,2.7-3.4,4.7-6.4,4.7
			c-0.2,0-0.3,0-0.5,0l-15-1.5c-4-0.4-7.2-3.5-7.6-7.5c-0.9-7.8-1.4-13.9-1.4-22.1C287.2,361.6,314.9,348.4,338.3,348.4"/>
		<path class="st13" d="M296.1,383.9c0-11.8,12.5-20.9,27.2-24.7"/>
		<path class="st13" d="M338.3,357.3c-3.5,0-7.1,0.3-10.6,1"/>
		<path class="st13" d="M306.8,414.6L306.8,414.6l25.9,20.7c1.5,1.2,3.4,2,5.5,2c4.6,0,8.4-3.5,8.8-8l2.6-25.6"/>
		<line class="st13" x1="353.9" y1="450.6" x2="338.5" y2="427.7"/>
		<circle class="st13" cx="336.1" cy="423.9" r="4.4"/>
	</g>
	<circle class="st14" cx="787.1" cy="432.6" r="111.5"/>
	<path id="SVGID_x5F_00000021800155967785707510000000476072999834002581_x5F_" class="st11" d="M912.7,432.6
		c0,69.4-56.3,125.7-125.7,125.7S661.4,502,661.4,432.6s56.3-125.7,125.7-125.7S912.7,363.2,912.7,432.6z"/>
	<text class="st1">	<textPath  xlink:href="#SVGID_x5F_00000021800155967785707510000000476072999834002581_x5F_" startOffset="93.3703%">
<tspan  class="st6" style="font-size:20.2518px;">proteger • prevenir • geolocaliser</tspan>	</textPath>
</text>
	<circle class="st1" cx="686.1" cy="386.9" r="11.4"/>
</g>
<g id="Calque_4" class="st0">
	<path class="st1" d="M323.2,404.9V417c-5.9-4.9-12-7.4-18.3-7.4c-6.9,0-12.8,2.5-17.5,7.5c-4.8,5-7.2,11-7.2,18.2
		c0,7.1,2.4,13.1,7.2,17.9c4.8,4.9,10.6,7.3,17.6,7.3c3.6,0,6.6-0.6,9.1-1.7c1.4-0.6,2.8-1.4,4.3-2.4c1.5-1,3.1-2.2,4.7-3.6v12.3
		c-5.8,3.3-11.9,4.9-18.4,4.9c-9.6,0-17.9-3.4-24.7-10.1c-6.8-6.8-10.2-15-10.2-24.6c0-8.6,2.8-16.3,8.5-23c7-8.2,16-12.4,27.1-12.4
		C311.7,400,317.6,401.6,323.2,404.9z"/>
	<path class="st1" d="M373,452.4h-28.9l-7.5,16.4h-11l33.4-71.7l32.2,71.7h-11.1L373,452.4z M368.8,442.8l-10-22.9l-10.5,22.9H368.8
		z"/>
	<path class="st1" d="M431.3,411.4l-8.3,4.9c-1.5-2.7-3-4.4-4.4-5.2c-1.5-0.9-3.3-1.4-5.6-1.4c-2.8,0-5.2,0.8-7,2.4
		c-1.9,1.6-2.8,3.6-2.8,5.9c0,3.3,2.4,5.9,7.3,8l6.7,2.8c5.5,2.2,9.5,4.9,12,8.1c2.5,3.2,3.8,7.1,3.8,11.7c0,6.2-2.1,11.3-6.2,15.4
		c-4.2,4.1-9.3,6.1-15.5,6.1c-5.9,0-10.7-1.7-14.5-5.2c-3.8-3.5-6.1-8.3-7-14.6l10.3-2.3c0.5,4,1.3,6.7,2.4,8.2
		c2.1,2.9,5.2,4.4,9.2,4.4c3.2,0,5.8-1.1,7.9-3.2c2.1-2.1,3.1-4.8,3.1-8.1c0-1.3-0.2-2.5-0.5-3.6c-0.4-1.1-0.9-2.1-1.7-3
		c-0.8-0.9-1.8-1.8-3-2.6c-1.2-0.8-2.7-1.6-4.4-2.3l-6.5-2.7c-9.2-3.9-13.9-9.6-13.9-17.1c0-5.1,1.9-9.3,5.8-12.7
		c3.9-3.4,8.7-5.2,14.5-5.2C420.9,400,427,403.8,431.3,411.4z"/>
	<path class="st1" d="M509.7,470h-12.8l-5.3-5.4c-5.6,3.6-11.9,5.4-18.8,5.4c-8.9,0-16.9-3-23.8-9.1c-7.5-6.7-11.3-15.2-11.3-25.6
		c0-10.2,3.6-18.6,10.7-25.4c6.9-6.6,15.1-9.9,24.6-9.9c8.6,0,16.2,2.9,23,8.7c8.2,6.9,12.2,16,12.2,27.1c0,8.7-3.2,16.5-9.7,23.3
		L509.7,470z M481.7,442.1l9.8,9.7c4.3-4.5,6.5-10,6.5-16.7c0-7.3-2.4-13.3-7.2-18.2c-4.8-4.9-10.8-7.3-17.9-7.3
		c-7.2,0-13.2,2.4-17.8,7.3c-4.7,4.9-7,11-7,18.5c0,7.3,2.4,13.2,7.3,17.9c5,4.8,10.8,7.2,17.3,7.2c4.4,0,8.4-1,11.9-3l-15.9-15.4
		H481.7z"/>
	<path class="st1" d="M524.7,401.3v40.6c0,5.8,0.9,10,2.8,12.7c2.8,3.9,6.8,5.8,11.9,5.8c5.2,0,9.1-1.9,12-5.8
		c1.9-2.6,2.8-6.8,2.8-12.7v-40.6h10.2v43.4c0,7.1-2.2,13-6.6,17.6c-5,5.1-11.1,7.7-18.4,7.7s-13.4-2.6-18.3-7.7
		c-4.4-4.6-6.6-10.5-6.6-17.6v-43.4H524.7z"/>
	<path class="st1" d="M586.7,397.7l8.7,3.4l-12.5,25l-6.6-2.8L586.7,397.7z"/>
	<path class="st1" d="M637.9,459.4h-40.3l-10.5,22.9h-15.3l46.6-100.1l44.9,100.1h-15.5L637.9,459.4z M632.1,446l-14-32l-14.6,32
		H632.1z"/>
	<path class="st1" d="M669.9,482.2v-94.1h19.8c9.5,0,17,0.9,22.4,2.8c5.9,1.8,11.2,4.9,16,9.3c9.7,8.9,14.6,20.5,14.6,34.9
		c0,14.5-5.1,26.2-15.2,35.1c-5.1,4.5-10.4,7.6-16,9.3c-5.2,1.7-12.6,2.6-22.1,2.6H669.9z M684.1,468.9h6.4c6.4,0,11.7-0.7,15.9-2
		c4.2-1.4,8-3.7,11.5-6.8c7-6.4,10.5-14.7,10.5-24.9c0-10.3-3.5-18.7-10.4-25.1c-6.2-5.7-15.4-8.6-27.5-8.6h-6.4V468.9z"/>
	<path class="st15" d="M803.8,250.4c-81,0-131.6,65.4-131.6,108.7l61.2,10.8c8.9,1.6,16.7,7,21.2,14.9c2.9,5.1,8.5,8.6,14.9,8.6
		c4.1,0,7.8-1.4,10.8-3.8l22.7-18.4c4.9-4,11.2-6.4,18-6.4c12.8,0,23.7,8.5,27.4,20.1l7.7,25c2.2,7,8.7,12.1,16.4,12.1
		c0.5,0,0.9,0,1.3-0.1l38.5-3.9c10.2-1,18.4-9,19.6-19.3c2.4-20,3.5-35.8,3.5-56.9C935.4,284.4,864,250.4,803.8,250.4"/>
	<path class="st15" d="M912.5,342c0-30.3-32.2-53.8-70.1-63.6"/>
	<path class="st15" d="M803.8,273.3c9.1,0,18.3,0.9,27.4,2.6"/>
	<path class="st15" d="M884.8,420.9L884.8,420.9L818,474.3c-3.9,3.1-8.9,5-14.3,5c-11.8,0-21.5-9-22.7-20.5l-6.6-66"/>
	<line class="st15" x1="763.7" y1="513.7" x2="803.1" y2="454.6"/>
	<circle class="st15" cx="809.5" cy="445" r="11.4"/>
	<circle class="st1" cx="809.1" cy="445.9" r="12"/>
	<text transform="matrix(1 0 0 1 267.4818 514.4885)" class="st1 st6 st16">proteger • prevenir • geolocaliser</text>
</g>
<g id="Calque_5">
	<path class="st17" d="M693.8,253.8c-81,0-131.6,65.4-131.6,108.7l61.2,10.8c8.9,1.6,16.7,7,21.2,14.9c2.9,5.1,8.5,8.6,14.9,8.6
		c4.1,0,7.8-1.4,10.8-3.8l22.7-18.4c4.9-4,11.2-6.4,18-6.4c12.8,0,23.7,8.5,27.4,20.1l7.7,25c2.2,7,8.7,12.1,16.4,12.1
		c0.5,0,0.9,0,1.3-0.1l38.5-3.9c10.2-1,18.4-9,19.6-19.3c2.4-20,3.5-35.8,3.5-56.9C825.4,287.7,754,253.8,693.8,253.8"/>
	<path class="st17" d="M802.5,345.4c0-30.3-32.2-53.8-70.1-63.6"/>
	<path class="st17" d="M693.8,276.7c9.1,0,18.3,0.9,27.4,2.6"/>
	<path class="st17" d="M774.8,424.3L774.8,424.3L708,477.7c-3.9,3.1-8.9,5-14.3,5c-11.8,0-21.5-9-22.7-20.5l-6.6-66"/>
	<line class="st17" x1="653.7" y1="517.1" x2="693.1" y2="457.9"/>
	<circle class="st17" cx="699.5" cy="448.4" r="11.4"/>
	<circle cx="699.1" cy="449.3" r="12"/>
	<path d="M488.7,460.8l8.7,3.4l-12.5,25l-6.6-2.8L488.7,460.8z"/>
	<path d="M539.9,522.4h-40.3l-10.5,22.9h-15.3l46.6-100.1l44.9,100.1h-15.5L539.9,522.4z M534.1,509.1l-14-32l-14.6,32H534.1z"/>
	<path d="M568.7,545.3v-94.1h19.8c9.5,0,17,0.9,22.4,2.8c5.9,1.8,11.2,4.9,16,9.3c9.7,8.9,14.6,20.5,14.6,34.9
		c0,14.5-5.1,26.2-15.2,35.1c-5.1,4.5-10.4,7.6-16,9.3c-5.2,1.7-12.6,2.6-22.1,2.6H568.7z M582.9,531.9h6.4c6.4,0,11.7-0.7,15.9-2
		c4.2-1.4,8-3.7,11.5-6.8c7-6.4,10.5-14.7,10.5-24.9c0-10.3-3.5-18.7-10.4-25.1c-6.2-5.7-15.4-8.6-27.5-8.6h-6.4V531.9z"/>
	<path d="M504,406.1v6.8c-3.3-2.8-6.8-4.2-10.4-4.2c-3.9,0-7.3,1.4-9.9,4.2c-2.7,2.8-4.1,6.2-4.1,10.3c0,4,1.4,7.4,4.1,10.2
		c2.7,2.8,6,4.1,10,4.1c2,0,3.8-0.3,5.2-1c0.8-0.3,1.6-0.8,2.5-1.3s1.7-1.2,2.7-2v7c-3.3,1.9-6.8,2.8-10.4,2.8
		c-5.5,0-10.1-1.9-14-5.7c-3.9-3.9-5.8-8.5-5.8-13.9c0-4.9,1.6-9.2,4.8-13c4-4.7,9.1-7,15.4-7C497.5,403.3,500.8,404.2,504,406.1z"
		/>
	<path d="M532.3,433h-16.4l-4.3,9.3h-6.2l18.9-40.7l18.3,40.7h-6.3L532.3,433z M529.9,427.6l-5.7-13l-6,13H529.9z"/>
	<path d="M565.4,409.7l-4.7,2.8c-0.9-1.5-1.7-2.5-2.5-3c-0.8-0.5-1.9-0.8-3.2-0.8c-1.6,0-2.9,0.5-4,1.4c-1.1,0.9-1.6,2-1.6,3.4
		c0,1.9,1.4,3.4,4.2,4.5l3.8,1.6c3.1,1.3,5.4,2.8,6.8,4.6s2.2,4,2.2,6.7c0,3.5-1.2,6.4-3.5,8.7c-2.4,2.3-5.3,3.5-8.8,3.5
		c-3.3,0-6.1-1-8.2-3c-2.1-2-3.5-4.7-4-8.3l5.9-1.3c0.3,2.2,0.7,3.8,1.4,4.7c1.2,1.7,2.9,2.5,5.2,2.5c1.8,0,3.3-0.6,4.5-1.8
		c1.2-1.2,1.8-2.7,1.8-4.6c0-0.7-0.1-1.4-0.3-2s-0.5-1.2-1-1.7c-0.4-0.5-1-1-1.7-1.5c-0.7-0.5-1.5-0.9-2.5-1.3l-3.7-1.5
		c-5.2-2.2-7.9-5.5-7.9-9.7c0-2.9,1.1-5.3,3.3-7.2c2.2-2,4.9-2.9,8.2-2.9C559.5,403.3,562.9,405.4,565.4,409.7z"/>
	<path d="M609.8,443h-7.3l-3-3.1c-3.2,2.1-6.7,3.1-10.7,3.1c-5.1,0-9.6-1.7-13.5-5.2c-4.3-3.8-6.4-8.6-6.4-14.5
		c0-5.8,2-10.6,6.1-14.4c3.9-3.7,8.6-5.6,13.9-5.6c4.9,0,9.2,1.6,13.1,4.9c4.6,3.9,6.9,9.1,6.9,15.4c0,5-1.8,9.4-5.5,13.2L609.8,443
		z M593.9,427.1l5.6,5.5c2.4-2.5,3.7-5.7,3.7-9.4c0-4.1-1.4-7.6-4.1-10.3c-2.7-2.8-6.1-4.2-10.2-4.2c-4.1,0-7.5,1.4-10.1,4.2
		c-2.7,2.8-4,6.3-4,10.5c0,4.1,1.4,7.5,4.1,10.1c2.9,2.7,6.1,4.1,9.8,4.1c2.5,0,4.8-0.6,6.8-1.7l-9-8.7H593.9z"/>
	<path d="M618.4,404v23.1c0,3.3,0.5,5.7,1.6,7.2c1.6,2.2,3.9,3.3,6.8,3.3c2.9,0,5.2-1.1,6.8-3.3c1.1-1.5,1.6-3.9,1.6-7.2V404h5.8
		v24.7c0,4-1.3,7.4-3.8,10c-2.8,2.9-6.3,4.4-10.4,4.4s-7.6-1.5-10.4-4.4c-2.5-2.6-3.8-5.9-3.8-10V404H618.4z"/>
</g>
</svg>
