<?xml version="1.0" encoding="utf-8"?>
<!-- Generator: Adobe Illustrator 26.1.0, SVG Export Plug-In . SVG Version: 6.00 Build 0)  -->
<svg version="1.1" id="Calque_1" xmlns="http://www.w3.org/2000/svg" xmlns:xlink="http://www.w3.org/1999/xlink" x="0px" y="0px"
	 viewBox="0 0 294.5 294.6" style="enable-background:new 0 0 294.5 294.6;" xml:space="preserve">
<style type="text/css">
	.st0{fill:none;stroke:#000000;stroke-width:7.403;stroke-miterlimit:10;}
</style>
<path class="st0" d="M147.7,16.2c-81,0-131.6,65.4-131.6,108.7l61.2,10.8c8.9,1.6,16.7,7,21.2,14.9c2.9,5.1,8.5,8.6,14.9,8.6
	c4.1,0,7.8-1.4,10.8-3.8l22.7-18.4c4.9-4,11.2-6.4,18-6.4c12.8,0,23.7,8.5,27.4,20.1l7.7,25c2.2,7,8.7,12.1,16.4,12.1
	c0.5,0,0.9,0,1.3-0.1l38.5-3.9c10.2-1,18.4-9,19.6-19.3c2.4-20,3.5-35.8,3.5-56.9C279.4,50.1,208,16.2,147.7,16.2"/>
<path class="st0" d="M256.5,107.8c0-30.3-32.2-53.8-70.1-63.6"/>
<path class="st0" d="M147.7,39.1c9.1,0,18.3,0.9,27.4,2.6"/>
<path class="st0" d="M228.8,186.7L228.8,186.7L162,240.1c-3.9,3.1-8.9,5-14.3,5c-11.8,0-21.5-9-22.7-20.5l-6.6-66"/>
<line class="st0" x1="107.7" y1="279.5" x2="147.1" y2="220.3"/>
<circle class="st0" cx="153.5" cy="210.8" r="11.4"/>
<circle cx="153.1" cy="211.7" r="12"/>
</svg>
